<?xml version="1.0" encoding="utf-8"?>
<!-- Generator: Adobe Illustrator 23.0.1, SVG Export Plug-In . SVG Version: 6.00 Build 0)  -->
<svg version="1.1" id="b5dafffa-57c7-46c2-a066-a109f33fa770"
	 xmlns="http://www.w3.org/2000/svg" xmlns:xlink="http://www.w3.org/1999/xlink" x="0px" y="0px" viewBox="0 0 18 18"
	 style="enable-background:new 0 0 18 18;" xml:space="preserve">
<style type="text/css">
	.st0{fill-rule:evenodd;clip-rule:evenodd;fill:#FFFFFF;}
	.st1{fill:#FFFFFF;}
</style>
<title>Zeichenfläche 7</title>
<path class="st0" d="M12.2,8.8c1.6,0,2.9-1.3,2.9-2.9s-1.3-2.9-2.9-2.9S9.2,4.2,9.2,5.8l0,0C9.2,7.5,10.5,8.8,12.2,8.8z M12.2,3.9
	c1.1,0,2,0.9,2,1.9c0,1.1-0.9,2-1.9,2c-1.1,0-2-0.9-2-1.9c0,0,0,0,0,0C10.2,4.8,11.1,3.9,12.2,3.9z"/>
<path class="st0" d="M12.2,9.2c-2.9,0-4.3,0.5-5.1,1.5c-0.5,0-1.1-0.1-1.7-0.1c-4.9,0-5.3,1.4-5.3,4.4h10.7c0-2.2-0.3-3.6-2.5-4.1
	c0.7-0.5,1.9-0.8,3.9-0.8c4.7,0,4.9,1.3,4.9,3.9h1C18,10.7,17.2,9.2,12.2,9.2z"/>
<circle class="st1" cx="5.3" cy="6.8" r="2.9"/>
</svg>
