<?xml version="1.0" encoding="utf-8"?>
<!-- Generator: Adobe Illustrator 23.0.1, SVG Export Plug-In . SVG Version: 6.00 Build 0)  -->
<svg version="1.1" id="b86c1ec1-17ed-444d-ab0f-dd7cd9721273"
	 xmlns="http://www.w3.org/2000/svg" xmlns:xlink="http://www.w3.org/1999/xlink" x="0px" y="0px" viewBox="0 0 18 18"
	 style="enable-background:new 0 0 18 18;" xml:space="preserve">
<style type="text/css">
	.st0{fill-rule:evenodd;clip-rule:evenodd;fill:#FFFFFF;}
</style>
<title>Zeichenfläche 18</title>
<path class="st0" d="M14.9,12.7L14.9,12.7c-0.3,0.1-4.6,1.2-6.8-3.7c2.2-4.8,6.5-3.8,6.7-3.7h0.1v1.2L18,4.4L15,2v1.2
	c-3.1-0.6-6.3,0.8-7.9,3.6C4.4,2,0.9,2.6,0.8,2.6C0.2,2.8-0.1,3.3,0,3.8c0.1,0.5,0.6,0.9,1.1,0.8c0.1,0,2.9-0.4,5,4.4
	c-2.1,4.8-4.8,4.4-4.9,4.4c-0.5-0.1-1,0.3-1.1,0.8c-0.1,0.5,0.2,1,0.7,1.2c0.2,0,0.4,0.1,0.6,0.1c1.1,0,3.7-0.5,5.8-4.2
	c1.4,2.3,3.8,3.7,6.5,3.7c0.5,0,0.9-0.1,1.4-0.1l0,1.3l3-2.3l-3.1-2.1L14.9,12.7z"/>
</svg>
