<?xml version="1.0" encoding="utf-8"?>
<!-- Generator: Adobe Illustrator 23.0.1, SVG Export Plug-In . SVG Version: 6.00 Build 0)  -->
<svg version="1.1" id="aad6b7e5-3655-4d2b-b615-51e490c605e5"
	 xmlns="http://www.w3.org/2000/svg" xmlns:xlink="http://www.w3.org/1999/xlink" x="0px" y="0px" viewBox="0 0 18 18"
	 style="enable-background:new 0 0 18 18;" xml:space="preserve">
<style type="text/css">
	.st0{fill:#FFFFFF;}
	.st1{fill-rule:evenodd;clip-rule:evenodd;fill:#FFFFFF;}
</style>
<title>Zeichenfläche 17</title>
<path class="st0" d="M15.5,1.5v15h-13v-15H15.5 M15.8,0H2.2C1.5,0,1,0.5,1,1.2v15.6C1,17.5,1.5,18,2.2,18h13.6
	c0.7,0,1.2-0.5,1.2-1.2V1.2C17,0.5,16.5,0,15.8,0z"/>
<polyline class="st1" points="6,6.3 4,9 6,11.7 "/>
<polyline class="st1" points="12,11.7 14,9 12,6.3 "/>
<g>
	<path class="st0" d="M4.9,9l1.7-2.2C6.8,6.4,6.8,6,6.5,5.7s-0.8-0.2-1,0.2l-2,2.7c-0.2,0.3-0.2,0.6,0,0.9l2,2.7
		c0.1,0.2,0.4,0.3,0.6,0.3c0.2,0,0.3-0.1,0.5-0.2c0.3-0.2,0.4-0.7,0.1-1L4.9,9z"/>
	<path class="st0" d="M14.6,8.5l-2-2.7c-0.2-0.3-0.7-0.4-1-0.1c-0.3,0.2-0.4,0.7-0.2,1L13.1,9l-1.7,2.3c-0.2,0.3-0.2,0.8,0.1,1
		c0.1,0.1,0.3,0.1,0.5,0.1c0.2,0,0.5-0.1,0.6-0.3l2-2.7C14.8,9.2,14.8,8.8,14.6,8.5z"/>
	<rect x="6.2" y="8.2" class="st0" width="1.5" height="1.5"/>
	<rect x="8.2" y="8.2" class="st0" width="1.5" height="1.5"/>
	<rect x="10.2" y="8.2" class="st0" width="1.5" height="1.5"/>
</g>
</svg>
