<svg id="b5dafffa-57c7-46c2-a066-a109f33fa770" data-name="Ebene 1" xmlns="http://www.w3.org/2000/svg" viewBox="0 0 18 18"><defs><style>.afec654e-68f8-499c-aea2-47bfb3aec2ac,.b1d2ffb6-1cfa-4cd7-bd18-164c9520dfc6{fill:#1f382b;}.b1d2ffb6-1cfa-4cd7-bd18-164c9520dfc6{fill-rule:evenodd;}</style></defs><title>Zeichenfläche 7</title><path class="b1d2ffb6-1cfa-4cd7-bd18-164c9520dfc6" d="M12.16,8.76A2.92,2.92,0,1,0,9.24,5.84,2.92,2.92,0,0,0,12.16,8.76Zm0-4.87a1.95,1.95,0,1,1-1.94,1.95A1.95,1.95,0,0,1,12.16,3.89Z"/><path class="b1d2ffb6-1cfa-4cd7-bd18-164c9520dfc6" d="M12.16,9.24c-2.85,0-4.34.49-5.1,1.54-.5,0-1.07-.08-1.71-.08C.49,10.7,0,12.13,0,15.08H10.7c0-2.22-.27-3.57-2.47-4.11.68-.51,1.87-.75,3.93-.75,4.66,0,4.87,1.26,4.87,3.89h1C18,10.74,17.16,9.24,12.16,9.24Z"/><circle class="afec654e-68f8-499c-aea2-47bfb3aec2ac" cx="5.35" cy="6.81" r="2.92"/></svg>