<svg id="aad6b7e5-3655-4d2b-b615-51e490c605e5" data-name="Ebene 1" xmlns="http://www.w3.org/2000/svg" viewBox="0 0 18 18"><defs><style>.f225bfc0-89e0-4a00-b55b-8d14867f53fe{fill:#1f382b;}.e8f31601-cc47-47f4-9f0e-265e7de6f36f{fill:#fff;fill-rule:evenodd;}</style></defs><title>Zeichenfläche 17</title><path class="f225bfc0-89e0-4a00-b55b-8d14867f53fe" d="M15.5,1.5v15H2.5V1.5h13M15.79,0H2.21A1.21,1.21,0,0,0,1,1.21V16.79A1.21,1.21,0,0,0,2.21,18H15.79A1.21,1.21,0,0,0,17,16.79V1.21A1.21,1.21,0,0,0,15.79,0Z"/><polyline class="e8f31601-cc47-47f4-9f0e-265e7de6f36f" points="6 6.33 4 9 6 11.67"/><path class="f225bfc0-89e0-4a00-b55b-8d14867f53fe" d="M6,12.42a.77.77,0,0,1-.6-.3l-2-2.67a.75.75,0,0,1,0-.9l2-2.67a.75.75,0,0,1,1.2.9L4.94,9,6.6,11.22a.75.75,0,0,1-.15,1A.74.74,0,0,1,6,12.42Z"/><polyline class="e8f31601-cc47-47f4-9f0e-265e7de6f36f" points="12 11.67 14 9 12 6.33"/><path class="f225bfc0-89e0-4a00-b55b-8d14867f53fe" d="M12,12.42a.76.76,0,0,1-.45-.15.75.75,0,0,1-.15-1L13.06,9,11.4,6.78a.75.75,0,0,1,1.2-.9l2,2.67a.75.75,0,0,1,0,.9l-2,2.67A.77.77,0,0,1,12,12.42Z"/><rect class="f225bfc0-89e0-4a00-b55b-8d14867f53fe" x="6.23" y="8.23" width="1.53" height="1.53"/><rect class="f225bfc0-89e0-4a00-b55b-8d14867f53fe" x="8.23" y="8.23" width="1.53" height="1.53"/><rect class="f225bfc0-89e0-4a00-b55b-8d14867f53fe" x="10.23" y="8.23" width="1.53" height="1.53"/></svg>