<?xml version="1.0" encoding="utf-8"?>
<!-- Generator: Adobe Illustrator 23.0.1, SVG Export Plug-In . SVG Version: 6.00 Build 0)  -->
<svg version="1.1" id="a5c5234d-435e-4034-bcd8-c6d933b99d8e"
	 xmlns="http://www.w3.org/2000/svg" xmlns:xlink="http://www.w3.org/1999/xlink" x="0px" y="0px" viewBox="0 0 18 18"
	 style="enable-background:new 0 0 18 18;" xml:space="preserve">
<style type="text/css">
	.st0{fill:#FFFFFF;}
</style>
<title>Zeichenfläche 20</title>
<path class="st0" d="M1.3,4.4h15.4C17.4,4.4,18,3.7,18,3c0,0,0,0,0,0c0-0.7-0.6-1.4-1.3-1.4c0,0,0,0,0,0H1.3C0.6,1.6,0,2.3,0,3
	c0,0,0,0,0,0C0,3.7,0.6,4.4,1.3,4.4C1.3,4.4,1.3,4.4,1.3,4.4z"/>
<path class="st0" d="M16.7,13.6H1.3c-0.8,0-1.4,0.6-1.4,1.4c0,0.8,0.6,1.4,1.4,1.4h15.4c0.8,0,1.4-0.6,1.4-1.4S17.4,13.6,16.7,13.6z
	"/>
<path class="st0" d="M16.7,7.6H1.3C0.6,7.6-0.1,8.2-0.1,9s0.6,1.4,1.4,1.4h15.4c0.8,0,1.4-0.6,1.4-1.4S17.4,7.6,16.7,7.6z"/>
</svg>
