<svg id="b86c1ec1-17ed-444d-ab0f-dd7cd9721273" data-name="Ebene 1" xmlns="http://www.w3.org/2000/svg" viewBox="0 0 18 18"><defs><style>.f6715c7d-c353-430e-bb7d-35a27454199b{fill:#1f382b;fill-rule:evenodd;}</style></defs><title>Zeichenfläche 18</title><path class="f6715c7d-c353-430e-bb7d-35a27454199b" d="M14.93,12.7h-.07c-.19.06-4.54,1.19-6.72-3.7,2.16-4.85,6.53-3.75,6.72-3.7h.07l0,1.16L18,4.36,15,2l0,1.24A7.49,7.49,0,0,0,7.11,6.83C4.43,2,.93,2.6.76,2.64A1,1,0,0,0,0,3.79a1,1,0,0,0,1.1.81C1.23,4.58,4,4.18,6.05,9,4,13.8,1.26,13.42,1.12,13.4a1,1,0,0,0-1.1.79,1,1,0,0,0,.74,1.17,2.85,2.85,0,0,0,.59.05c1.14,0,3.7-.46,5.77-4.23a7.51,7.51,0,0,0,6.46,3.68,6.6,6.6,0,0,0,1.4-.15L15,16l3-2.32-3.1-2.1Z"/></svg>