<svg id="b2b6fb09-743e-434a-81eb-4fb45bb5780a" data-name="Ebene 1" xmlns="http://www.w3.org/2000/svg" viewBox="0 0 18 18"><defs><style>.a60b022c-186e-4d9e-aee9-ad0d59943ce0{fill:#fff;}.a220cfb6-70c8-40f1-9d96-6e96a1319e8c,.aab630be-edb6-4ce3-a557-14949c2ee51f{fill:#1f382b;}.a220cfb6-70c8-40f1-9d96-6e96a1319e8c{fill-rule:evenodd;}</style></defs><title>Zeichenfläche 16</title><circle class="a60b022c-186e-4d9e-aee9-ad0d59943ce0" cx="11.5" cy="10.5" r="1.75"/><path class="aab630be-edb6-4ce3-a557-14949c2ee51f" d="M11.5,9.5a1,1,0,1,1-1,1,1,1,0,0,1,1-1m0-1.5A2.5,2.5,0,1,0,14,10.5,2.5,2.5,0,0,0,11.5,8Z"/><polyline class="a220cfb6-70c8-40f1-9d96-6e96a1319e8c" points="9.85 12.38 10 18 11.63 16.23 13 18 13.15 11.75"/><path class="aab630be-edb6-4ce3-a557-14949c2ee51f" d="M13.63,3.06H4.37a.44.44,0,1,1,0-.87h9.26a.44.44,0,1,1,0,.87Z"/><path class="aab630be-edb6-4ce3-a557-14949c2ee51f" d="M13.63,5.25H4.37a.44.44,0,0,1-.44-.44.43.43,0,0,1,.44-.43h9.26a.43.43,0,0,1,.44.43A.44.44,0,0,1,13.63,5.25Z"/><path class="aab630be-edb6-4ce3-a557-14949c2ee51f" d="M13.63,7.44H4.37a.44.44,0,0,1,0-.88h9.26a.44.44,0,1,1,0,.88Z"/><path class="aab630be-edb6-4ce3-a557-14949c2ee51f" d="M14.69,1.31V14.44H3.31V1.31H14.69M14.94,0H3.06A1.05,1.05,0,0,0,2,1.06V14.69a1.05,1.05,0,0,0,1.06,1.06H14.94A1.05,1.05,0,0,0,16,14.69V1.06A1.05,1.05,0,0,0,14.94,0Z"/></svg>