<svg id="e6c9679b-8ec2-4490-9453-e45ba9b79ea9" data-name="Ebene 1" xmlns="http://www.w3.org/2000/svg" viewBox="0 0 18 18"><defs><style>.e67aab8a-b1a1-4b67-bcf2-e7f54437649a{fill:#1f382b;}</style></defs><title>Zeichenfläche 6</title><path class="e67aab8a-b1a1-4b67-bcf2-e7f54437649a" d="M17.86,8.44a1.44,1.44,0,0,0-.32-.52L12,2.33a1.47,1.47,0,0,0-2.07,0,1.42,1.42,0,0,0-.43,1,1.46,1.46,0,0,0,.43,1l3.2,3.2H1.42a1.42,1.42,0,0,0,0,2.84H13.08L9.91,13.6a1.46,1.46,0,0,0-.43,1,1.42,1.42,0,0,0,.43,1,1.46,1.46,0,0,0,2.07,0l5.6-5.59h0A1.46,1.46,0,0,0,17.86,8.44Z"/></svg>